<svg id="Layer_1" data-name="Layer 1" xmlns="http://www.w3.org/2000/svg" viewBox="0 0 127.26 127.27"><defs><style>.cls-1{fill:red;}.cls-1,.cls-2,.cls-3,.cls-5{stroke:#000;}.cls-1,.cls-2,.cls-3,.cls-4,.cls-5{stroke-miterlimit:10;}.cls-2{fill:#4d4d4d;}.cls-3{fill:none;}.cls-3,.cls-5{stroke-width:0.5px;}.cls-4{stroke:red;stroke-width:2px;}.cls-5{fill:#ed1c24;}</style></defs><title>Scrimslogo</title><path class="cls-1" d="M7189.72,7173.19c-35-20.95-48.82-37.23-48.82-37.23s33.81,35.12,37,48.6" transform="translate(-7140.07 -7135.61)"/><path class="cls-1" d="M7177.65,7213.68c-20.95,35-37.23,48.82-37.23,48.82s35.12-33.81,48.6-37" transform="translate(-7140.07 -7135.61)"/><path class="cls-1" d="M7217.68,7173.19c35-20.95,48.82-37.23,48.82-37.23s-33.81,35.12-37,48.6" transform="translate(-7140.07 -7135.61)"/><path class="cls-1" d="M7229.74,7213.68c21,35,37.24,48.82,37.24,48.82s-35.12-33.81-48.6-37" transform="translate(-7140.07 -7135.61)"/><path class="cls-2" d="M7252.27,7196.18h-45.51c10.7-10.7,15.48-15.49,24.92-24.92l26.49,19Z" transform="translate(-7140.07 -7135.61)"/><path class="cls-2" d="M7153.73,7199.73h45.52l-24.92,24.92-26.49-19Z" transform="translate(-7140.07 -7135.61)"/><path class="cls-2" d="M7252.27,7199.73h-45.51c10.7,10.7,15.48,15.49,24.92,24.92l26.49-19Z" transform="translate(-7140.07 -7135.61)"/><path class="cls-2" d="M7201.23,7247.23v-45.52l-24.92,24.92,19,26.49Z" transform="translate(-7140.07 -7135.61)"/><path class="cls-2" d="M7201.23,7148.69v45.51c-10.7-10.7-15.49-15.48-24.92-24.92l19-26.49Z" transform="translate(-7140.07 -7135.61)"/><path class="cls-2" d="M7204.78,7247.23v-45.52l24.92,24.92-19,26.49Z" transform="translate(-7140.07 -7135.61)"/><path class="cls-2" d="M7204.78,7148.69v45.51c10.7-10.7,15.49-15.48,24.92-24.92l-19-26.49Z" transform="translate(-7140.07 -7135.61)"/><path class="cls-3" d="M7285.63,7133.34" transform="translate(-7140.07 -7135.61)"/><path class="cls-3" d="M7283.16,7196.24" transform="translate(-7140.07 -7135.61)"/><path class="cls-3" d="M7220.59,7197.27" transform="translate(-7140.07 -7135.61)"/><path class="cls-2" d="M7153.73,7196.18h45.52l-24.92-24.92-26.49,19Z" transform="translate(-7140.07 -7135.61)"/><ellipse class="cls-4" cx="63.43" cy="61.38" rx="30.34" ry="28.69"/><polygon class="cls-5" points="84.32 62.46 84.16 45.81 63.02 69.18 41.81 45.72 41.64 62.37 63.02 85.89 84.32 62.46"/><path class="cls-2" d="M7113,7112" transform="translate(-7140.07 -7135.61)"/></svg>